<svg xmlns="http://www.w3.org/2000/svg" viewBox="0 0 1100 2400" font-family="Helvetica, Arial, sans-serif">
  <defs>
    <pattern id="hatch" width="12" height="12" patternTransform="rotate(45)" patternUnits="userSpaceOnUse">
      <rect width="12" height="12" fill="#e8ecef"/>
      <line x1="0" y1="0" x2="0" y2="12" stroke="#9fb2bd" stroke-width="1.5"/>
    </pattern>
    <marker id="arr" markerWidth="12" markerHeight="10" refX="10" refY="5" orient="auto-start-reverse">
      <path d="M0,1.5 L11,5 L0,8.5 z" fill="#1a1a1a"/>
    </marker>
  </defs>

  <style>
    .dim { stroke:#1a1a1a; stroke-width:1.4; marker-start:url(#arr); marker-end:url(#arr); }
    .ext { stroke:#6b7680; stroke-width:0.9; stroke-dasharray:3 3; }
    .cota { font-size:17px; font-weight:bold; fill:#111; paint-order:stroke; stroke:#ffffff; stroke-width:4px; }
    .lbl  { font-size:13.5px; fill:#333; paint-order:stroke; stroke:#ffffff; stroke-width:4px; }
    .titp { font-size:19px; font-weight:bold; fill:#0b3d66; }
    .nota { font-size:14.5px; fill:#222; }
    .slab { fill:#c9ced2; stroke:#555; stroke-width:1.2; }
    .wall { fill:url(#hatch); stroke:#333; stroke-width:2; }
    .vao  { fill:#ffffff; stroke:#333; stroke-width:2; }
    .xv   { stroke:#c3ccd2; stroke-width:1; }
  </style>

  <text x="550" y="38" text-anchor="middle" font-size="25" font-weight="bold" fill="#111">LEVANTAMENTO DE MEDIDAS — REGULARIZAÇÃO E REBOCO (cotas em metros)</text>
  <text x="550" y="60" text-anchor="middle" font-size="14" fill="#555">Cozinha em reforma — 4 elevações internas — medidas extraídas das fotos anotadas em obra (14/07/2026)</text>

  <!-- ===================== PAREDE 1 ===================== -->
  <text x="150" y="100" class="titp">PAREDE 1 — ELEVAÇÃO (porta + boneca + janela)</text>

  <rect x="120" y="104" width="660" height="16" class="slab"/>
  <rect x="120" y="568" width="660" height="14" class="slab"/>
  <text x="788" y="116" class="lbl">TETO (pé-direito 2,80)</text>
  <text x="788" y="580" class="lbl">PISO</text>

  <rect x="150" y="120" width="560" height="448" class="wall"/>

  <!-- vão de porta 1,00 x 2,30 -->
  <rect x="150" y="200" width="160" height="368" class="vao"/>
  <line x1="150" y1="200" x2="310" y2="568" class="xv"/>
  <line x1="310" y1="200" x2="150" y2="568" class="xv"/>
  <text x="230" y="390" text-anchor="middle" class="lbl">VÃO DE PORTA</text>
  <text x="230" y="408" text-anchor="middle" class="lbl">1,00 × 2,30</text>

  <!-- boneca -->
  <rect x="310" y="200" width="24" height="368" fill="#e05252" fill-opacity="0.45" stroke="#b02020" stroke-width="1.6"/>
  <text x="322" y="470" text-anchor="middle" class="lbl" transform="rotate(-90 322 470)">BONECA 0,15 × 2,30</text>

  <!-- janela 1,20 x 1,20, peitoril 1,05 -->
  <rect x="406" y="208" width="192" height="192" class="vao"/>
  <line x1="406" y1="208" x2="598" y2="400" class="xv"/>
  <line x1="598" y1="208" x2="406" y2="400" class="xv"/>
  <text x="502" y="296" text-anchor="middle" class="lbl">JANELA</text>
  <text x="502" y="314" text-anchor="middle" class="lbl">1,20 × 1,20</text>

  <line x1="150" y1="200" x2="310" y2="200" stroke="#333" stroke-width="1.4"/>
  <line x1="150" y1="152" x2="334" y2="152" stroke="#888" stroke-width="1" stroke-dasharray="4 3"/>
  <text x="180" y="144" class="lbl">VERGA h=0,30</text>

  <text x="138" y="360" text-anchor="middle" class="lbl" transform="rotate(-90 138 360)">PILAR EXISTENTE</text>
  <text x="722" y="360" text-anchor="middle" class="lbl" transform="rotate(-90 722 360)">CANTO / PAREDE LATERAL</text>

  <!-- cotas horizontais -->
  <g>
    <line x1="150" y1="572" x2="150" y2="612" class="ext"/>
    <line x1="310" y1="572" x2="310" y2="686" class="ext"/>
    <line x1="334" y1="572" x2="334" y2="612" class="ext"/>
    <line x1="406" y1="572" x2="406" y2="612" class="ext"/>
    <line x1="598" y1="572" x2="598" y2="612" class="ext"/>
    <line x1="710" y1="572" x2="710" y2="686" class="ext"/>
    <line x1="150" y1="604" x2="310" y2="604" class="dim"/>
    <line x1="310" y1="604" x2="334" y2="604" class="dim"/>
    <line x1="334" y1="604" x2="406" y2="604" class="dim"/>
    <line x1="406" y1="604" x2="598" y2="604" class="dim"/>
    <line x1="598" y1="604" x2="710" y2="604" class="dim"/>
    <text x="230" y="598" text-anchor="middle" class="cota">1,00</text>
    <text x="322" y="632" text-anchor="middle" class="cota">0,15</text>
    <text x="370" y="598" text-anchor="middle" class="cota">0,45</text>
    <text x="502" y="598" text-anchor="middle" class="cota">1,20</text>
    <text x="654" y="598" text-anchor="middle" class="cota">0,70</text>
  </g>
  <g>
    <line x1="310" y1="648" x2="710" y2="648" class="dim"/>
    <text x="510" y="642" text-anchor="middle" class="cota">2,50</text>
  </g>
  <g>
    <line x1="150" y1="612" x2="150" y2="686" class="ext"/>
    <line x1="150" y1="680" x2="710" y2="680" class="dim"/>
    <text x="430" y="674" text-anchor="middle" class="cota">3,50 (total do vão de porta ao canto)</text>
  </g>

  <!-- cotas verticais esquerda -->
  <g>
    <line x1="146" y1="568" x2="96" y2="568" class="ext"/>
    <line x1="146" y1="200" x2="96" y2="200" class="ext"/>
    <line x1="146" y1="152" x2="96" y2="152" class="ext"/>
    <line x1="146" y1="120" x2="56" y2="120" class="ext"/>
    <line x1="106" y1="568" x2="106" y2="200" class="dim"/>
    <line x1="106" y1="200" x2="106" y2="152" class="dim"/>
    <line x1="106" y1="152" x2="106" y2="120" class="dim"/>
    <text x="100" y="388" text-anchor="middle" class="cota" transform="rotate(-90 100 388)">2,30</text>
    <text x="100" y="176" text-anchor="middle" class="cota" transform="rotate(-90 100 176)">0,30</text>
    <text x="82" y="136" text-anchor="middle" class="cota">0,20</text>
    <line x1="62" y1="568" x2="62" y2="120" class="dim"/>
    <line x1="146" y1="568" x2="56" y2="568" class="ext"/>
    <text x="56" y="348" text-anchor="middle" class="cota" transform="rotate(-90 56 348)">2,80 (pé-direito)</text>
  </g>

  <!-- cotas verticais direita -->
  <g>
    <line x1="714" y1="568" x2="764" y2="568" class="ext"/>
    <line x1="602" y1="400" x2="764" y2="400" class="ext"/>
    <line x1="602" y1="208" x2="764" y2="208" class="ext"/>
    <line x1="714" y1="120" x2="764" y2="120" class="ext"/>
    <line x1="754" y1="568" x2="754" y2="400" class="dim"/>
    <line x1="754" y1="400" x2="754" y2="208" class="dim"/>
    <line x1="754" y1="208" x2="754" y2="120" class="dim"/>
    <text x="748" y="488" text-anchor="middle" class="cota" transform="rotate(-90 748 488)">1,05</text>
    <text x="748" y="308" text-anchor="middle" class="cota" transform="rotate(-90 748 308)">1,20</text>
    <text x="748" y="168" text-anchor="middle" class="cota" transform="rotate(-90 748 168)">0,55*</text>
  </g>
  <text x="780" y="640" class="lbl">* cota anotada em obra: 0,50 —</text>
  <text x="780" y="658" class="lbl">fechamento geométrico dá 0,55.</text>
  <text x="780" y="676" class="lbl">Divergência de 5 cm: CONFERIR.</text>

  <!-- ===================== PAREDE 2 ===================== -->
  <text x="150" y="762" class="titp">PAREDE 2 — ELEVAÇÃO (pano junto à parede azulejada + vão de passagem)</text>

  <rect x="120" y="766" width="860" height="16" class="slab"/>
  <rect x="120" y="1198" width="860" height="14" class="slab"/>
  <text x="1090" y="778" text-anchor="end" class="lbl">TETO (pé-dir. 2,60)</text>
  <text x="988" y="1210" class="lbl">PISO</text>

  <rect x="150" y="782" width="184" height="416" class="wall"/>
  <text x="242" y="980" text-anchor="middle" class="lbl">PANO A REBOCAR</text>
  <text x="242" y="998" text-anchor="middle" class="lbl">1,15 × 2,60</text>

  <path d="M 334 782 L 910 782 L 910 806 L 398 806 L 334 870 Z" class="wall"/>
  <text x="660" y="800" text-anchor="middle" class="lbl">VERGA / TESTEIRA h = 0,15</text>

  <line x1="334" y1="870" x2="398" y2="806" stroke="#b02020" stroke-width="3" stroke-dasharray="7 4"/>
  <text x="420" y="862" class="lbl" fill="#b02020" transform="rotate(-45 420 862)">≈ 0,60</text>

  <line x1="334" y1="870" x2="334" y2="1198" stroke="#333" stroke-width="2"/>
  <line x1="910" y1="806" x2="910" y2="1198" stroke="#333" stroke-width="2"/>
  <line x1="360" y1="840" x2="890" y2="1190" class="xv"/>
  <line x1="890" y1="830" x2="360" y2="1190" class="xv"/>
  <text x="622" y="1010" text-anchor="middle" class="lbl">VÃO DE PASSAGEM (livre) 3,60</text>
  <text x="622" y="1028" text-anchor="middle" class="lbl">altura livre ≈ 2,45 (2,60 − 0,15) — conferir</text>

  <text x="138" y="1000" text-anchor="middle" class="lbl" transform="rotate(-90 138 1000)">CANTO / PAREDE AZULEJADA</text>
  <text x="922" y="1000" text-anchor="middle" class="lbl" transform="rotate(-90 922 1000)">PILAR DE CONCRETO</text>

  <!-- detalhe recorte 0,40 x 0,40 -->
  <g>
    <line x1="334" y1="806" x2="334" y2="912" class="ext"/>
    <line x1="398" y1="806" x2="398" y2="912" class="ext"/>
    <line x1="334" y1="904" x2="398" y2="904" class="dim"/>
    <text x="366" y="932" text-anchor="middle" class="cota">0,40</text>
    <line x1="398" y1="806" x2="470" y2="806" class="ext"/>
    <line x1="334" y1="870" x2="470" y2="870" class="ext"/>
    <line x1="462" y1="806" x2="462" y2="870" class="dim"/>
    <text x="492" y="844" text-anchor="middle" class="cota">0,40</text>
  </g>

  <g>
    <line x1="910" y1="782" x2="960" y2="782" class="ext"/>
    <line x1="910" y1="806" x2="960" y2="806" class="ext"/>
    <line x1="950" y1="782" x2="950" y2="806" class="dim"/>
    <text x="950" y="772" text-anchor="middle" class="cota">0,15</text>
  </g>

  <g>
    <line x1="150" y1="1202" x2="150" y2="1300" class="ext"/>
    <line x1="334" y1="1202" x2="334" y2="1262" class="ext"/>
    <line x1="910" y1="1202" x2="910" y2="1300" class="ext"/>
    <line x1="150" y1="1240" x2="334" y2="1240" class="dim"/>
    <line x1="334" y1="1240" x2="910" y2="1240" class="dim"/>
    <text x="242" y="1234" text-anchor="middle" class="cota">1,15</text>
    <text x="622" y="1234" text-anchor="middle" class="cota">3,60</text>
    <line x1="150" y1="1292" x2="910" y2="1292" class="dim"/>
    <text x="530" y="1286" text-anchor="middle" class="cota">4,75 (total do canto ao pilar)</text>
  </g>

  <g>
    <line x1="146" y1="782" x2="96" y2="782" class="ext"/>
    <line x1="146" y1="1198" x2="96" y2="1198" class="ext"/>
    <line x1="106" y1="782" x2="106" y2="1198" class="dim"/>
    <text x="100" y="994" text-anchor="middle" class="cota" transform="rotate(-90 100 994)">2,60 (pé-direito)</text>
  </g>

  <!-- ===================== PAREDE 3 ===================== -->
  <text x="150" y="1362" class="titp">PAREDE 3 — ELEVAÇÃO (nicho das tubulações)</text>

  <rect x="120" y="1366" width="320" height="16" class="slab"/>
  <rect x="120" y="1798" width="320" height="14" class="slab"/>
  <text x="264" y="1378" class="lbl" text-anchor="middle">LAJE</text>
  <text x="448" y="1810" class="lbl">PISO</text>

  <rect x="150" y="1382" width="224" height="416" class="wall"/>
  <text x="262" y="1590" text-anchor="middle" class="lbl">PANO A REBOCAR</text>
  <text x="262" y="1608" text-anchor="middle" class="lbl">1,40 × 2,35 (até o forro)</text>

  <!-- linha do forro a 2,35 do piso -->
  <line x1="130" y1="1422" x2="440" y2="1422" stroke="#b02020" stroke-width="2" stroke-dasharray="8 5"/>
  <text x="448" y="1427" class="lbl" fill="#b02020">FORRO (rebaixo de 0,25)</text>

  <text x="138" y="1590" text-anchor="middle" class="lbl" transform="rotate(-90 138 1590)">TUBULAÇÕES / PILAR</text>
  <text x="386" y="1590" text-anchor="middle" class="lbl" transform="rotate(-90 386 1590)">CANTO (parede externa)</text>

  <!-- cotas -->
  <g>
    <line x1="150" y1="1802" x2="150" y2="1854" class="ext"/>
    <line x1="374" y1="1802" x2="374" y2="1854" class="ext"/>
    <line x1="150" y1="1846" x2="374" y2="1846" class="dim"/>
    <text x="262" y="1840" text-anchor="middle" class="cota">1,40</text>
  </g>
  <g>
    <line x1="146" y1="1422" x2="66" y2="1422" class="ext"/>
    <line x1="146" y1="1798" x2="66" y2="1798" class="ext"/>
    <line x1="76" y1="1422" x2="76" y2="1798" class="dim"/>
    <text x="70" y="1614" text-anchor="middle" class="cota" transform="rotate(-90 70 1614)">2,35 (até o forro)</text>
  </g>
  <g>
    <line x1="378" y1="1382" x2="430" y2="1382" class="ext"/>
    <line x1="378" y1="1798" x2="430" y2="1798" class="ext"/>
    <line x1="420" y1="1382" x2="420" y2="1798" class="dim"/>
    <text x="414" y="1594" text-anchor="middle" class="cota" transform="rotate(-90 414 1594)">2,60 (até a laje)</text>
  </g>

  <!-- ===================== PAREDE 4 ===================== -->
  <text x="640" y="1362" class="titp">PAREDE 4 — ELEVAÇÃO (vão externo)</text>

  <rect x="620" y="1798" width="300" height="14" class="slab"/>
  <text x="928" y="1810" class="lbl">PISO</text>

  <rect x="680" y="1422" width="80" height="376" class="wall"/>
  <line x1="640" y1="1422" x2="800" y2="1422" stroke="#555" stroke-width="2"/>
  <text x="720" y="1412" text-anchor="middle" class="lbl">VERGA DO VÃO EXTERNO</text>
  <text x="722" y="1610" text-anchor="middle" class="lbl" transform="rotate(-90 722 1610)">FAIXA A REBOCAR 0,50 × 2,35</text>

  <text x="668" y="1610" text-anchor="middle" class="lbl" transform="rotate(-90 668 1610)">CANTO / PAREDE 3</text>
  <text x="790" y="1610" text-anchor="middle" class="lbl" transform="rotate(-90 790 1610)">VÃO P/ ÁREA EXTERNA</text>

  <g>
    <line x1="680" y1="1802" x2="680" y2="1854" class="ext"/>
    <line x1="760" y1="1802" x2="760" y2="1854" class="ext"/>
    <line x1="680" y1="1846" x2="760" y2="1846" class="dim"/>
    <text x="720" y="1876" text-anchor="middle" class="cota">0,50</text>
  </g>
  <g>
    <line x1="764" y1="1422" x2="860" y2="1422" class="ext"/>
    <line x1="764" y1="1798" x2="860" y2="1798" class="ext"/>
    <line x1="850" y1="1422" x2="850" y2="1798" class="dim"/>
    <text x="844" y="1614" text-anchor="middle" class="cota" transform="rotate(-90 844 1614)">2,35</text>
  </g>

  <!-- ===================== LEGENDA E NOTAS ===================== -->
  <rect x="120" y="1920" width="860" height="450" fill="#f7f9fa" stroke="#c4ccd2" stroke-width="1.2" rx="8"/>
  <text x="145" y="1952" class="titp">LEGENDA E NOTAS EXECUTIVAS</text>

  <rect x="145" y="1970" width="34" height="20" class="wall"/>
  <text x="188" y="1985" class="nota">Superfície a receber regularização + reboco (chapisco → emboço 2,0–2,5 cm)</text>
  <rect x="145" y="1998" width="34" height="20" fill="#e05252" fill-opacity="0.45" stroke="#b02020"/>
  <text x="188" y="2013" class="nota">Boneca (requadro lateral do vão) — executar no prumo e esquadro, e = 0,15</text>
  <line x1="145" y1="2036" x2="179" y2="2036" stroke="#b02020" stroke-width="3" stroke-dasharray="7 4"/>
  <text x="188" y="2041" class="nota">Borda irregular de demolição / linha de forro — requadrar ou compatibilizar antes do reboco</text>

  <text x="145" y="2076" class="nota">1. Cotas em metros, levantadas em obra (fotos anotadas). Conferir todas as medidas antes da execução.</text>
  <text x="145" y="2100" class="nota">2. Parede 1 — verificação horizontal: 0,15 + 0,45 + 1,20 + 0,70 = 2,50 ✓ (confere com a cota geral anotada).</text>
  <text x="145" y="2124" class="nota">3. Parede 1 — vertical: 1,05 (peitoril) + 1,20 (janela) + 0,55 (topo) = 2,80; cota de topo anotada era 0,50 → conferir.</text>
  <text x="145" y="2148" class="nota">4. Parede 3 — reboco até o forro (2,35) ou até a laje (2,60): definir antes da execução do rebaixo.</text>
  <text x="145" y="2172" class="nota">5. Sequência executiva: remoção de argamassa colante solta e pó → chapisco (aderência) → taliscas/mestras</text>
  <text x="145" y="2192" class="nota">    niveladas → emboço sarrafeado e = 2,0–2,5 cm → requadro de bonecas, espaletas, vergas e peitoril.</text>
  <text x="145" y="2224" class="nota">6. Áreas estimadas de reboco (inclui requadros e espaletas):</text>
  <text x="175" y="2248" class="nota">Parede 1 ≈ 7,5 m² · Parede 2 ≈ 4,0 m² · Parede 3 ≈ 3,3 m² · Parede 4 ≈ 1,2 m² → TOTAL ≈ 16,0 m²</text>
  <text x="145" y="2272" class="nota">7. Com perdas de 10%: adotar ≈ 18 m². Consumo estimado: chapisco ≈ 80 kg;</text>
  <text x="145" y="2292" class="nota">    argamassa de emboço ≈ 720–900 kg (36 a 45 sacos de 20 kg), para espessura média de 2,0–2,5 cm.</text>
  <text x="145" y="2326" class="nota" font-style="italic" fill="#666">Desenho esquemático sem escala gráfica — dimensões válidas pelas cotas indicadas.</text>
  <text x="145" y="2348" class="nota" font-style="italic" fill="#666">Data do levantamento: 14/07/2026 · Uso: orçamento e execução de regularização e reboco.</text>
</svg>
